<?xml version="1.0" encoding="UTF-8" standalone="no"?>
<!-- Created with Inkscape (http://www.inkscape.org/) -->

<svg
   width="35.673931mm"
   height="7.624444mm"
   viewBox="0 0 35.673931 7.624444"
   version="1.1"
   id="svg1"
   xml:space="preserve"
   inkscape:version="1.4 (86a8ad7, 2024-10-11)"
   sodipodi:docname="EnkamaxLogoOptimized2.svg"
   xmlns:inkscape="http://www.inkscape.org/namespaces/inkscape"
   xmlns:sodipodi="http://sodipodi.sourceforge.net/DTD/sodipodi-0.dtd"
   xmlns="http://www.w3.org/2000/svg"
   xmlns:svg="http://www.w3.org/2000/svg"><sodipodi:namedview
     id="namedview1"
     pagecolor="#ffffff"
     bordercolor="#000000"
     borderopacity="0.25"
     inkscape:showpageshadow="2"
     inkscape:pageopacity="0.0"
     inkscape:pagecheckerboard="0"
     inkscape:deskcolor="#d1d1d1"
     inkscape:document-units="mm"
     inkscape:zoom="4"
     inkscape:cx="60.125"
     inkscape:cy="-3.625"
     inkscape:window-width="1920"
     inkscape:window-height="1009"
     inkscape:window-x="-8"
     inkscape:window-y="-8"
     inkscape:window-maximized="1"
     inkscape:current-layer="layer1" /><defs
     id="defs1"><rect
       x="320.88983"
       y="540.47192"
       width="144.83073"
       height="40.818169"
       id="rect110" /><filter
       style="color-interpolation-filters:sRGB"
       id="filter1"
       x="-5.5968273e-05"
       y="-0.00037484993"
       width="1.0001119"
       height="1.0007497"><feGaussianBlur
         stdDeviation="0.0026374941"
         id="feGaussianBlur1" /></filter></defs><g
     inkscape:label="Layer 1"
     inkscape:groupmode="layer"
     id="layer1"
     inkscape:export-filename="layer1.svg"
     inkscape:export-xdpi="96"
     inkscape:export-ydpi="96"><path
       style="font-size:24px;font-family:Serif;-inkscape-font-specification:'Serif, Normal';letter-spacing:3.43px;white-space:pre;fill:#1b485c;stroke-width:1.00157"
       d="m 325.90625,546.75212 v 6.28125 h 3.49219 q 1.35937,0 1.8164,-0.41016 0.60938,-0.53906 0.67969,-1.89843 h 0.43359 v 5.53125 h -0.43359 q -0.16406,-1.16016 -0.32812,-1.48829 -0.21094,-0.41015 -0.69141,-0.64453 -0.48047,-0.23437 -1.47656,-0.23437 h -3.49219 v 5.23828 q 0,1.05469 0.0937,1.28906 0.0937,0.22266 0.32812,0.36328 0.23438,0.12891 0.89063,0.12891 h 2.69531 q 1.34766,0 1.95703,-0.1875 0.60938,-0.1875 1.17188,-0.73828 0.72656,-0.72656 1.48828,-2.19141 H 335 l -1.37109,3.98438 h -12.2461 v -0.4336 h 0.5625 q 0.5625,0 1.06641,-0.26953 0.375,-0.1875 0.5039,-0.5625 0.14063,-0.375 0.14063,-1.53515 v -10.32422 q 0,-1.51172 -0.30469,-1.86328 -0.42187,-0.46875 -1.40625,-0.46875 h -0.5625 v -0.4336 h 12.2461 l 0.17578,3.48047 h -0.45703 q -0.2461,-1.25391 -0.55079,-1.72266 -0.29296,-0.46875 -0.8789,-0.71484 -0.46875,-0.17578 -1.65235,-0.17578 z m 16.95344,6.24609 q 1.88672,-2.27343 3.59765,-2.27343 0.87891,0 1.51172,0.44531 0.63282,0.43359 1.00782,1.4414 0.25781,0.70313 0.25781,2.15625 v 4.58204 q 0,1.01953 0.16406,1.38281 0.12891,0.29297 0.41016,0.45703 0.29297,0.16406 1.0664,0.16406 v 0.42188 h -5.30859 v -0.42188 h 0.22266 q 0.75,0 1.04296,-0.22265 0.30469,-0.23438 0.42188,-0.67969 0.0469,-0.17578 0.0469,-1.10156 v -4.39454 q 0,-1.46484 -0.38671,-2.12109 -0.375,-0.66797 -1.27735,-0.66797 -1.39453,0 -2.77734,1.52344 v 5.66016 q 0,1.08984 0.1289,1.34765 0.16407,0.33985 0.44532,0.50391 0.29297,0.15234 1.17187,0.15234 v 0.42188 h -5.30859 v -0.42188 h 0.23437 q 0.82032,0 1.10157,-0.41015 0.29296,-0.42188 0.29296,-1.59375 v -3.98438 q 0,-1.93359 -0.0937,-2.35547 -0.082,-0.42187 -0.26953,-0.57422 -0.17578,-0.15234 -0.48047,-0.15234 -0.32812,0 -0.78515,0.17578 l -0.17578,-0.42187 3.23437,-1.3125 h 0.50391 z m 15.47687,-7.88672 v 10.67579 l 2.73047,-2.48438 q 0.86719,-0.79687 1.00781,-1.00781 0.0937,-0.14063 0.0937,-0.28125 0,-0.23438 -0.19921,-0.39844 -0.1875,-0.17578 -0.63282,-0.19922 v -0.375 h 4.66407 v 0.375 q -0.96094,0.0234 -1.60547,0.29297 -0.63282,0.26953 -1.39453,0.96094 l -2.75391,2.54297 2.75391,3.48047 q 1.14843,1.4414 1.54687,1.82812 0.5625,0.55078 0.98438,0.71484 0.29296,0.11719 1.01953,0.11719 v 0.42188 h -5.21485 v -0.42188 q 0.44532,-0.0117 0.59766,-0.1289 0.16406,-0.12891 0.16406,-0.35157 0,-0.26953 -0.46875,-0.86718 l -3.29297,-4.20704 v 3.5625 q 0,1.04297 0.14063,1.3711 0.15234,0.32812 0.42187,0.46875 0.26953,0.14062 1.17188,0.15234 v 0.42188 H 354.61 v -0.42188 q 0.82031,0 1.23047,-0.19922 0.24609,-0.1289 0.375,-0.39843 0.17578,-0.38672 0.17578,-1.33594 v -9.77344 q 0,-1.86328 -0.082,-2.27344 -0.082,-0.42187 -0.26953,-0.57422 -0.1875,-0.16406 -0.49219,-0.16406 -0.24609,0 -0.73828,0.19922 l -0.19922,-0.41016 3.1875,-1.3125 z m 18.33625,15.11719 q -1.65234,1.27735 -2.07422,1.47656 -0.63281,0.29297 -1.34765,0.29297 -1.11328,0 -1.83985,-0.76172 -0.71484,-0.76171 -0.71484,-2.0039 0,-0.78516 0.35156,-1.35938 0.48047,-0.79687 1.66407,-1.5 1.19531,-0.70312 3.96093,-1.71093 v -0.42188 q 0,-1.60547 -0.51562,-2.20312 -0.50391,-0.59766 -1.47656,-0.59766 -0.73829,0 -1.17188,0.39844 -0.44531,0.39843 -0.44531,0.91406 l 0.0234,0.67969 q 0,0.53906 -0.28125,0.83203 -0.26954,0.29297 -0.71485,0.29297 -0.43359,0 -0.71484,-0.30469 -0.26953,-0.30469 -0.26953,-0.83203 0,-1.00781 1.03125,-1.85156 1.03125,-0.84375 2.89453,-0.84375 1.42969,0 2.34375,0.48046 0.6914,0.36329 1.01953,1.13672 0.21094,0.50391 0.21094,2.0625 v 3.64453 q 0,1.53516 0.0586,1.88672 0.0586,0.33985 0.1875,0.45703 0.14063,0.11719 0.31641,0.11719 0.1875,0 0.32812,-0.082 0.2461,-0.15234 0.94922,-0.85547 v 0.65625 q -1.3125,1.75781 -2.50781,1.75781 -0.57422,0 -0.91406,-0.39843 -0.33985,-0.39844 -0.35157,-1.35938 z m 0,-0.76172 v -4.08984 q -1.76953,0.70312 -2.28515,0.99609 -0.92578,0.51563 -1.32422,1.07813 -0.39844,0.5625 -0.39844,1.23047 0,0.84375 0.50391,1.40625 0.5039,0.55078 1.16015,0.55078 0.89063,0 2.34375,-1.17188 z m 17.07063,2.3086 -6.14063,-13.3711 v 10.61719 q 0,1.46484 0.31641,1.82813 0.43359,0.49218 1.37109,0.49218 h 0.5625 v 0.4336 h -5.53125 v -0.4336 h 0.5625 q 1.00782,0 1.42969,-0.60937 0.25781,-0.375 0.25781,-1.71094 v -10.38281 q 0,-1.05469 -0.23437,-1.52344 -0.16406,-0.33984 -0.60938,-0.5625 -0.43359,-0.23437 -1.40625,-0.23437 v -0.4336 h 4.5 l 5.76563,12.4336 5.67187,-12.4336 h 4.5 v 0.4336 h -0.55078 q -1.01953,0 -1.4414,0.60937 -0.25782,0.375 -0.25782,1.71094 v 10.38281 q 0,1.46484 0.32813,1.82813 0.43359,0.49218 1.37109,0.49218 h 0.55078 v 0.4336 h -6.75 v -0.4336 h 0.5625 q 1.01953,0 1.42969,-0.60937 0.25781,-0.375 0.25781,-1.71094 v -10.61719 l -6.1289,13.3711 z m 21.78156,-1.54688 q -1.65234,1.27735 -2.07422,1.47656 -0.63281,0.29297 -1.34765,0.29297 -1.11328,0 -1.83985,-0.76172 -0.71484,-0.76171 -0.71484,-2.0039 0,-0.78516 0.35156,-1.35938 0.48047,-0.79687 1.66406,-1.5 1.19532,-0.70312 3.96094,-1.71093 v -0.42188 q 0,-1.60547 -0.51562,-2.20312 -0.50391,-0.59766 -1.47657,-0.59766 -0.73828,0 -1.17187,0.39844 -0.44531,0.39843 -0.44531,0.91406 l 0.0234,0.67969 q 0,0.53906 -0.28125,0.83203 -0.26953,0.29297 -0.71484,0.29297 -0.43359,0 -0.71484,-0.30469 -0.26953,-0.30469 -0.26953,-0.83203 0,-1.00781 1.03125,-1.85156 1.03125,-0.84375 2.89453,-0.84375 1.42968,0 2.34375,0.48046 0.6914,0.36329 1.01953,1.13672 0.21094,0.50391 0.21094,2.0625 v 3.64453 q 0,1.53516 0.0586,1.88672 0.0586,0.33985 0.1875,0.45703 0.14062,0.11719 0.31641,0.11719 0.1875,0 0.32812,-0.082 0.24609,-0.15234 0.94922,-0.85547 v 0.65625 q -1.3125,1.75781 -2.50781,1.75781 -0.57422,0 -0.91407,-0.39843 -0.33984,-0.39844 -0.35156,-1.35938 z m 0,-0.76172 v -4.08984 q -1.76953,0.70312 -2.28515,0.99609 -0.92579,0.51563 -1.32422,1.07813 -0.39844,0.5625 -0.39844,1.23047 0,0.84375 0.50391,1.40625 0.5039,0.55078 1.16015,0.55078 0.89063,0 2.34375,-1.17188 z m 7.56672,-8.42578 h 5.05078 v 0.4336 q -0.48047,0 -0.67969,0.16406 -0.1875,0.16406 -0.1875,0.43359 0,0.28125 0.41016,0.86719 0.12891,0.1875 0.38672,0.58594 l 0.76172,1.21875 0.8789,-1.21875 q 0.84375,-1.16016 0.84375,-1.46485 0,-0.24609 -0.19921,-0.41015 -0.19922,-0.17578 -0.64454,-0.17578 v -0.4336 h 3.63282 v 0.4336 q -0.57422,0.0352 -0.9961,0.3164 -0.57422,0.39844 -1.57031,1.73438 l -1.46484,1.95703 2.67187,3.84375 q 0.98438,1.41797 1.40625,1.71094 0.42188,0.28125 1.08985,0.3164 v 0.42188 h -5.0625 v -0.42188 q 0.52734,0 0.82031,-0.23437 0.22265,-0.16407 0.22265,-0.4336 0,-0.26953 -0.75,-1.35937 l -1.57031,-2.29688 -1.72265,2.29688 q -0.79688,1.0664 -0.79688,1.26562 0,0.28125 0.25781,0.51563 0.26953,0.22265 0.79688,0.24609 v 0.42188 h -3.50391 v -0.42188 q 0.42188,-0.0586 0.73828,-0.29297 0.44532,-0.33984 1.5,-1.73437 l 2.25,-2.98828 -2.03906,-2.95313 q -0.86719,-1.26562 -1.34766,-1.58203 -0.46875,-0.32812 -1.18359,-0.32812 z"
       id="text110"
       transform="matrix(0.26458333,0,0,0.26458333,-79.236243,-144.22138)"
       aria-label="EnkaMax"
       inkscape:export-filename="EnkamaxLogo.svg"
       inkscape:export-xdpi="102.6"
       inkscape:export-ydpi="102.6" /><path
       style="font-size:2.47952px;font-family:Serif;-inkscape-font-specification:'Serif, Normal';fill:#949494;fill-opacity:0.992157;stroke-width:0.266082"
       d="M 1.6485644,7.6168289 H 1.2102898 L 0.65457705,6.8492431 q -0.0617459,0.00242 -0.10048836,0.00242 -0.0157391,0 -0.0338997,0 -0.0181605,-0.00121 -0.0375318,-0.00242 v 0.4770171 q 0,0.15497 0.0338997,0.1925018 0.0460067,0.053271 0.13802016,0.053271 h 0.0641673 v 0.044796 H 0.01532578 v -0.044796 h 0.06174586 q 0.10412048,0 0.14891649,-0.067799 0.0254248,-0.037532 0.0254248,-0.1779733 v -1.060576 q 0,-0.15497 -0.0338997,-0.1925018 -0.0472174,-0.053271 -0.14044157,-0.053271 H 0.01532578 v -0.044796 h 0.59808737 q 0.26151188,0 0.3850036,0.038742 0.12470245,0.037532 0.21066235,0.1404416 0.087171,0.1016991 0.087171,0.2433513 0,0.1513379 -0.099278,0.2627226 -0.098067,0.1113847 -0.30509723,0.1573914 L 1.2308718,7.2887284 q 0.1162275,0.1622342 0.199766,0.2155051 0.083538,0.053271 0.2179266,0.067799 z M 0.4826572,6.7729688 q 0.0230034,0 0.0399532,0.00121 0.0169498,0 0.0278462,0 0.23487642,0 0.35352533,-0.1016991 Q 1.0238415,6.5707814 1.0238415,6.41339 q 0,-0.1537593 -0.0968562,-0.2494049 -0.0956455,-0.096856 -0.25424767,-0.096856 -0.0702208,0 -0.1900804,0.023003 z M 2.1449526,6.0647075 v 0.6489369 h 0.3607896 q 0.1404416,0 0.187659,-0.042375 0.062957,-0.055692 0.070221,-0.1961339 H 2.808418 V 7.0465877 H 2.763622 Q 2.7466721,6.9267281 2.7297223,6.8928284 2.7079296,6.8504538 2.6582908,6.8262398 2.608652,6.8020257 2.5057422,6.8020257 H 2.1449526 V 7.34321 q 0,0.1089633 0.00969,0.1331774 0.00969,0.023003 0.0339,0.037532 0.024214,0.013318 0.092013,0.013318 h 0.2784617 q 0.1392309,0 0.2021875,-0.019371 0.062956,-0.019371 0.1210703,-0.076274 0.075064,-0.075064 0.1537593,-0.2264015 h 0.048428 L 2.942806,7.6168289 H 1.6776212 v -0.044796 h 0.058114 q 0.058114,0 0.110174,-0.027846 0.038742,-0.019371 0.05206,-0.058114 0.014528,-0.038743 0.014528,-0.1586021 V 6.2608414 q 0,-0.1561807 -0.031478,-0.1925018 Q 1.837434,6.0199114 1.735735,6.0199114 H 1.6776212 V 5.9751154 H 2.942806 l 0.018161,0.3595789 H 2.9137492 Q 2.8883244,6.205149 2.8568461,6.1567209 2.8265785,6.1082928 2.7660434,6.082868 2.7176152,6.0647075 2.5953342,6.0647075 Z M 4.6341585,5.9375836 4.6716903,6.4957178 H 4.6341585 Q 4.5590949,6.2451022 4.419864,6.1349282 4.2806332,6.0247543 4.0857099,6.0247543 q -0.1634449,0 -0.2954115,0.083539 -0.1319667,0.082328 -0.208241,0.2639333 -0.075064,0.1816054 -0.075064,0.4515922 0,0.2227694 0.071432,0.3862144 0.071431,0.1634449 0.2142945,0.2506155 0.1440737,0.087171 0.3281005,0.087171 0.1598129,0 0.2820939,-0.067799 0.122281,-0.06901 0.2687761,-0.2724083 l 0.037532,0.024214 q -0.1234918,0.2191373 -0.2881474,0.3208364 -0.1646556,0.101699 -0.3910571,0.101699 -0.408007,0 -0.6319871,-0.3026758 -0.167077,-0.2251908 -0.167077,-0.530288 0,-0.2457727 0.110174,-0.4515922 0.110174,-0.2058196 0.3026758,-0.318415 0.1937125,-0.1138061 0.4225354,-0.1138061 0.1779734,0 0.3511039,0.087171 0.050849,0.026635 0.072642,0.026635 0.032689,0 0.056903,-0.023003 0.031478,-0.032689 0.044796,-0.090803 z M 6.4707952,7.6168289 H 6.0325206 L 5.4768079,6.8492431 q -0.061746,0.00242 -0.1004884,0.00242 -0.015739,0 -0.0339,0 -0.018161,-0.00121 -0.037532,-0.00242 v 0.4770171 q 0,0.15497 0.0339,0.1925018 0.046007,0.053271 0.1380202,0.053271 h 0.064167 v 0.044796 H 4.8375566 v -0.044796 h 0.061746 q 0.1041204,0 0.1489164,-0.067799 0.025425,-0.037532 0.025425,-0.1779733 v -1.060576 q 0,-0.15497 -0.0339,-0.1925018 -0.047217,-0.053271 -0.1404415,-0.053271 H 4.8375566 V 5.9751154 H 5.435644 q 0.2615118,0 0.3850036,0.038742 0.1247024,0.037532 0.2106623,0.1404416 0.087171,0.1016991 0.087171,0.2433513 0,0.1513379 -0.099278,0.2627226 -0.098067,0.1113847 -0.3050972,0.1573914 l 0.3389969,0.4709636 q 0.1162275,0.1622342 0.199766,0.2155051 0.083538,0.053271 0.2179266,0.067799 z M 5.304888,6.7729688 q 0.023003,0 0.039953,0.00121 0.01695,0 0.027846,0 0.2348764,0 0.3535253,-0.1016991 0.1198596,-0.101699 0.1198596,-0.2590904 0,-0.1537593 -0.096856,-0.2494049 -0.095646,-0.096856 -0.2542477,-0.096856 -0.070221,0 -0.1900804,0.023003 z M 7.6318595,6.0199114 V 5.9751154 H 8.212997 v 0.044796 h -0.061746 q -0.096856,0 -0.1489165,0.081117 -0.025425,0.037532 -0.025425,0.1743412 v 0.6658868 q 0,0.2469834 -0.049639,0.3837929 -0.048428,0.1355987 -0.1925018,0.2336657 -0.142863,0.096856 -0.3898465,0.096856 -0.2687761,0 -0.4080069,-0.093224 Q 6.797685,7.4691231 6.7395713,7.3117317 6.7008288,7.2039791 6.7008288,6.9073569 V 6.2656842 q 0,-0.1513379 -0.042375,-0.1985553 -0.041164,-0.047218 -0.1343881,-0.047218 h -0.061746 v -0.044796 h 0.7094721 v 0.044796 h -0.062957 q -0.101699,0 -0.1452844,0.064167 -0.030267,0.043585 -0.030267,0.1816055 v 0.7155256 q 0,0.095645 0.01695,0.2191372 0.018161,0.1234918 0.064167,0.1925018 0.046007,0.06901 0.1319666,0.1138061 0.087171,0.044796 0.2130838,0.044796 0.1610235,0 0.2881473,-0.070221 0.1271239,-0.070221 0.1731306,-0.1791841 0.047217,-0.110174 0.047217,-0.3716859 v -0.664676 q 0,-0.1537593 -0.0339,-0.1925018 -0.047217,-0.053271 -0.1404415,-0.053271 z m 1.3729377,1.5521215 v 0.044796 H 8.3013787 v -0.044796 h 0.058114 q 0.101699,0 0.1477057,-0.059324 0.029057,-0.038743 0.029057,-0.1864482 v -1.060576 q 0,-0.1247024 -0.015739,-0.1646556 -0.012107,-0.030268 -0.049639,-0.05206 -0.053271,-0.029057 -0.1113846,-0.029057 h -0.058114 v -0.044796 h 0.7034185 v 0.044796 h -0.059324 q -0.1004884,0 -0.1464951,0.059324 -0.030268,0.038743 -0.030268,0.1864483 v 1.060576 q 0,0.1247024 0.015739,0.1646556 0.012107,0.030268 0.050849,0.05206 0.05206,0.029057 0.110174,0.029057 z m 1.4952178,-1.5969175 0.01816,0.3850036 h -0.04601 q -0.01332,-0.101699 -0.03632,-0.1452843 -0.03753,-0.070221 -0.100489,-0.1029098 -0.06175,-0.0339 -0.163445,-0.0339 H 9.9406701 v 1.2542885 q 0,0.1513379 0.032689,0.1888697 0.046007,0.050849 0.1416519,0.050849 h 0.0569 v 0.044796 H 9.4757601 v -0.044796 h 0.058114 q 0.1041205,0 0.1477058,-0.062957 0.026636,-0.038743 0.026636,-0.1767626 V 6.0780252 H 9.5108705 q -0.1150168,0 -0.163445,0.01695 -0.062957,0.023003 -0.1077525,0.088381 -0.044796,0.065378 -0.053271,0.1767626 h -0.046007 l 0.019371,-0.3850036 z m 1.094476,1.6417135 -0.634408,-1.3814123 v 1.0968971 q 0,0.1513379 0.03269,0.1888697 0.0448,0.050849 0.141652,0.050849 h 0.05811 v 0.044796 h -0.571452 v -0.044796 h 0.05811 q 0.10412,0 0.147705,-0.062957 0.02664,-0.038743 0.02664,-0.1767626 v -1.072683 q 0,-0.1089633 -0.02421,-0.1573914 -0.01695,-0.03511 -0.06296,-0.058114 -0.0448,-0.024214 -0.145284,-0.024214 v -0.044796 h 0.46491 l 0.595666,1.2845561 0.58598,-1.2845561 h 0.46491 v 0.044796 h -0.0569 q -0.105331,0 -0.148916,0.062957 -0.02664,0.038742 -0.02664,0.1767627 v 1.072683 q 0,0.1513379 0.0339,0.1888697 0.0448,0.050849 0.141652,0.050849 h 0.0569 v 0.044796 h -0.697365 v -0.044796 h 0.05811 q 0.105331,0 0.147706,-0.062957 0.02664,-0.038743 0.02664,-0.1767626 V 6.2354166 l -0.633198,1.3814123 z m 1.708302,-1.5521214 v 0.6489369 h 0.360789 q 0.140442,0 0.187659,-0.042375 0.06296,-0.055692 0.07022,-0.1961339 h 0.0448 v 0.5714519 h -0.0448 q -0.01695,-0.1198596 -0.0339,-0.1537593 -0.02179,-0.042375 -0.07143,-0.066589 -0.04964,-0.024214 -0.152549,-0.024214 H 13.302793 V 7.34321 q 0,0.1089633 0.0097,0.1331774 0.0097,0.023003 0.0339,0.037532 0.02421,0.013318 0.09201,0.013318 h 0.278461 q 0.139231,0 0.202188,-0.019371 0.06296,-0.019371 0.12107,-0.076274 0.07506,-0.075064 0.153759,-0.2264015 h 0.04843 l -0.141653,0.4116391 h -1.265185 v -0.044796 h 0.05811 q 0.05811,0 0.110174,-0.027846 0.03874,-0.019371 0.05206,-0.058114 0.01453,-0.038743 0.01453,-0.1586021 V 6.2608414 q 0,-0.1561807 -0.03148,-0.1925018 -0.04359,-0.048428 -0.145285,-0.048428 h -0.05811 v -0.044796 h 1.265185 l 0.01816,0.3595789 h -0.04722 q -0.02542,-0.1295453 -0.0569,-0.1779734 -0.03027,-0.048428 -0.0908,-0.073853 -0.04843,-0.018161 -0.17071,-0.018161 z m 0.963719,-0.089592 h 0.445539 l 1.003673,1.2312851 V 6.2596307 q 0,-0.1513379 -0.0339,-0.1888697 -0.0448,-0.05085 -0.141652,-0.05085 h -0.0569 v -0.044796 h 0.571452 v 0.044796 h -0.05811 q -0.10412,0 -0.147706,0.062957 -0.02663,0.038742 -0.02663,0.1767627 v 1.3838337 h -0.04359 L 14.696312,6.3213765 v 1.0109372 q 0,0.1513379 0.03269,0.1888697 0.04601,0.050849 0.141652,0.050849 h 0.05811 v 0.044796 h -0.571452 v -0.044796 h 0.0569 q 0.105331,0 0.148917,-0.062957 0.02663,-0.038743 0.02663,-0.1767626 V 6.1906206 q -0.07143,-0.083538 -0.108963,-0.110174 -0.03632,-0.026636 -0.107753,-0.049639 -0.03511,-0.010896 -0.106542,-0.010896 z m 3.258003,0 0.01816,0.3850036 h -0.04601 q -0.01332,-0.101699 -0.03632,-0.1452843 -0.03753,-0.070221 -0.100489,-0.1029098 -0.06175,-0.0339 -0.163445,-0.0339 H 16.96517 v 1.2542885 q 0,0.1513379 0.03269,0.1888697 0.04601,0.050849 0.141652,0.050849 h 0.0569 v 0.044796 H 16.50026 v -0.044796 h 0.05811 q 0.10412,0 0.147705,-0.062957 0.02664,-0.038743 0.02664,-0.1767626 V 6.0780252 H 16.53537 q -0.115016,0 -0.163445,0.01695 -0.06296,0.023003 -0.107752,0.088381 -0.0448,0.065378 -0.05327,0.1767626 h -0.04601 l 0.01937,-0.3850036 z m 2.147788,-0.037532 0.03753,0.5581342 h -0.03753 Q 19.597239,6.2451022 19.458008,6.1349282 19.318777,6.0247543 19.123854,6.0247543 q -0.163445,0 -0.295412,0.083539 -0.131966,0.082328 -0.20824,0.2639333 -0.07506,0.1816054 -0.07506,0.4515922 0,0.2227694 0.07143,0.3862144 0.07143,0.1634449 0.214295,0.2506155 0.144074,0.087171 0.3281,0.087171 0.159813,0 0.282094,-0.067799 0.122281,-0.06901 0.268776,-0.2724083 l 0.03753,0.024214 q -0.123492,0.2191373 -0.288147,0.3208364 -0.164656,0.101699 -0.391057,0.101699 -0.408007,0 -0.631987,-0.3026758 -0.167077,-0.2251908 -0.167077,-0.530288 0,-0.2457727 0.110174,-0.4515922 0.110174,-0.2058196 0.302675,-0.318415 0.193713,-0.1138061 0.422536,-0.1138061 0.177973,0 0.351104,0.087171 0.05085,0.026635 0.07264,0.026635 0.03269,0 0.0569,-0.023003 0.03148,-0.032689 0.0448,-0.090803 z m 1.067839,0 q 0.319626,0 0.553292,0.2433514 0.234876,0.2421406 0.234876,0.6053515 0,0.3741073 -0.236087,0.6210908 -0.236087,0.2469834 -0.571452,0.2469834 -0.338997,0 -0.570241,-0.2409299 -0.230034,-0.2409299 -0.230034,-0.6235121 0,-0.3910572 0.266355,-0.6380406 0.231244,-0.2142945 0.553291,-0.2142945 z m -0.023,0.088381 q -0.220348,0 -0.353525,0.1634449 -0.165867,0.2033981 -0.165867,0.5956659 0,0.4019535 0.17192,0.6186694 0.131967,0.1646556 0.348683,0.1646556 0.231244,0 0.381371,-0.1803948 0.151338,-0.1803948 0.151338,-0.5690305 0,-0.4213247 -0.165866,-0.6283549 Q 20.952015,6.025965 20.717139,6.025965 Z m 0.874128,-0.05085 h 0.445539 l 1.003673,1.2312851 V 6.2596307 q 0,-0.1513379 -0.0339,-0.1888697 -0.0448,-0.05085 -0.141652,-0.05085 h -0.0569 v -0.044796 h 0.571452 v 0.044796 h -0.05811 q -0.104121,0 -0.147706,0.062957 -0.02664,0.038742 -0.02664,0.1767627 v 1.3838337 h -0.04359 L 22.021067,6.3213765 v 1.0109372 q 0,0.1513379 0.03269,0.1888697 0.04601,0.050849 0.141652,0.050849 h 0.05811 v 0.044796 H 21.68207 v -0.044796 h 0.0569 q 0.105331,0 0.148916,-0.062957 0.02664,-0.038743 0.02664,-0.1767626 V 6.1906206 q -0.07143,-0.083538 -0.108964,-0.110174 -0.03632,-0.026636 -0.107752,-0.049639 -0.03511,-0.010896 -0.106542,-0.010896 z m 2.96017,-0.037532 v 0.5678198 h -0.0448 q -0.02179,-0.1634449 -0.0787,-0.2603012 -0.05569,-0.096856 -0.159813,-0.1537593 -0.10412,-0.056903 -0.215505,-0.056903 -0.125913,0 -0.208241,0.077485 -0.08233,0.076274 -0.08233,0.1743412 0,0.075064 0.05206,0.1368095 0.07506,0.090803 0.357158,0.2421406 0.230033,0.1234918 0.313572,0.1900804 0.08475,0.065378 0.129545,0.15497 0.04601,0.089592 0.04601,0.187659 0,0.1864483 -0.145285,0.3220471 -0.144073,0.134388 -0.371685,0.134388 -0.07143,0 -0.134388,-0.010896 -0.03753,-0.00605 -0.156181,-0.043585 -0.117438,-0.038742 -0.148917,-0.038742 -0.03027,0 -0.04843,0.01816 -0.01695,0.018161 -0.02542,0.075064 h -0.0448 v -0.562977 h 0.0448 q 0.03148,0.1767627 0.08475,0.265144 0.05327,0.087171 0.162234,0.1452844 0.110174,0.058114 0.24093,0.058114 0.151338,0 0.238508,-0.079906 0.08838,-0.079906 0.08838,-0.1888697 0,-0.060535 -0.0339,-0.1222811 -0.03269,-0.061746 -0.10291,-0.1150168 -0.04722,-0.036321 -0.25788,-0.1537593 -0.210662,-0.1186489 -0.300254,-0.1888696 -0.08838,-0.070221 -0.134388,-0.1549701 -0.04601,-0.084749 -0.04601,-0.1864482 0,-0.1767627 0.135599,-0.3038865 0.135599,-0.1283346 0.34505,-0.1283346 0.130756,0 0.277251,0.064167 0.0678,0.030268 0.09565,0.030268 0.03148,0 0.05085,-0.018161 0.02058,-0.019371 0.03269,-0.076274 z m 1.424996,0.082328 v -0.044796 h 0.581138 v 0.044796 h -0.06175 q -0.09686,0 -0.148916,0.081117 -0.02542,0.037532 -0.02542,0.1743412 v 0.6658868 q 0,0.2469834 -0.04964,0.3837929 -0.04843,0.1355987 -0.192502,0.2336657 -0.142863,0.096856 -0.389846,0.096856 -0.268776,0 -0.408007,-0.093224 -0.139231,-0.093224 -0.197345,-0.2506156 -0.03874,-0.1077526 -0.03874,-0.4043748 V 6.2656842 q 0,-0.1513379 -0.04237,-0.1985553 -0.04116,-0.047218 -0.134388,-0.047218 h -0.06175 v -0.044796 h 0.709472 v 0.044796 h -0.06296 q -0.101699,0 -0.145285,0.064167 -0.03027,0.043585 -0.03027,0.1816055 v 0.7155256 q 0,0.095645 0.01695,0.2191372 0.01816,0.1234918 0.06417,0.1925018 0.04601,0.06901 0.131967,0.1138061 0.08717,0.044796 0.213083,0.044796 0.161024,0 0.288148,-0.070221 0.127123,-0.070221 0.17313,-0.1791841 0.04722,-0.110174 0.04722,-0.3716859 v -0.664676 q 0,-0.1537593 -0.0339,-0.1925018 -0.04722,-0.053271 -0.140442,-0.053271 z m 2.029139,1.1429038 0.03995,0.00847 -0.140442,0.4455387 h -1.271238 v -0.044796 h 0.06175 q 0.10412,0 0.148916,-0.067799 0.02542,-0.038742 0.02542,-0.179184 V 6.2656842 q 0,-0.1537593 -0.0339,-0.1925018 -0.04722,-0.053271 -0.140441,-0.053271 h -0.06175 v -0.044796 h 0.743371 v 0.044796 q -0.130756,-0.00121 -0.184026,0.024214 -0.05206,0.025425 -0.07143,0.064167 -0.01937,0.038742 -0.01937,0.1852376 v 1.0315191 q 0,0.1004883 0.01937,0.1380201 0.01453,0.025425 0.0448,0.037532 0.03027,0.012107 0.18887,0.012107 h 0.119859 q 0.18887,0 0.265144,-0.027846 0.07627,-0.027846 0.139231,-0.098067 0.06296,-0.071432 0.125913,-0.2239801 z m 1.300296,-1.1876998 0.01816,0.3850036 h -0.04601 q -0.01332,-0.101699 -0.03632,-0.1452843 -0.03753,-0.070221 -0.100489,-0.1029098 -0.06175,-0.0339 -0.163445,-0.0339 h -0.231244 v 1.2542885 q 0,0.1513379 0.03269,0.1888697 0.04601,0.050849 0.141652,0.050849 h 0.0569 v 0.044796 h -0.696154 v -0.044796 h 0.05811 q 0.10412,0 0.147705,-0.062957 0.02664,-0.038743 0.02664,-0.1767626 V 6.0780252 h -0.197345 q -0.115016,0 -0.163445,0.01695 -0.06296,0.023003 -0.107752,0.088381 -0.0448,0.065378 -0.05327,0.1767626 h -0.04601 l 0.01937,-0.3850036 z m 1.01578,1.0920543 h -0.635619 l -0.111385,0.2590905 q -0.04116,0.095645 -0.04116,0.1428629 0,0.037532 0.03511,0.066589 0.03632,0.027846 0.15497,0.036321 v 0.044796 h -0.51697 v -0.044796 q 0.10291,-0.01816 0.133178,-0.047217 0.06175,-0.058114 0.136809,-0.2360871 l 0.577505,-1.3511448 h 0.04237 l 0.571452,1.3656732 q 0.06901,0.1646556 0.124702,0.2142945 0.0569,0.048428 0.157392,0.054482 v 0.044796 h -0.647726 v -0.044796 q 0.09807,-0.00484 0.131966,-0.032689 0.03511,-0.027846 0.03511,-0.067799 0,-0.053271 -0.04843,-0.1682877 z M 30.287748,6.9775776 30.009286,6.3141123 29.72356,6.9775776 Z M 30.94516,5.9751154 h 0.445539 l 1.003673,1.2312851 V 6.2596307 q 0,-0.1513379 -0.0339,-0.1888697 -0.0448,-0.05085 -0.141652,-0.05085 h -0.0569 v -0.044796 h 0.571452 v 0.044796 h -0.05811 q -0.10412,0 -0.147706,0.062957 -0.02663,0.038742 -0.02663,0.1767627 v 1.3838337 h -0.04359 L 31.37496,6.3213765 v 1.0109372 q 0,0.1513379 0.03269,0.1888697 0.04601,0.050849 0.141652,0.050849 h 0.05811 v 0.044796 h -0.571452 v -0.044796 h 0.0569 q 0.105331,0 0.148917,-0.062957 0.02663,-0.038743 0.02663,-0.1767626 V 6.1906206 q -0.07143,-0.083538 -0.108963,-0.110174 -0.03632,-0.026636 -0.107753,-0.049639 -0.03511,-0.010896 -0.106542,-0.010896 z m 3.258003,0 0.01816,0.3850036 h -0.04601 q -0.01332,-0.101699 -0.03632,-0.1452843 -0.03753,-0.070221 -0.100489,-0.1029098 -0.06175,-0.0339 -0.163445,-0.0339 h -0.231244 v 1.2542885 q 0,0.1513379 0.03269,0.1888697 0.04601,0.050849 0.141652,0.050849 h 0.0569 v 0.044796 h -0.696154 v -0.044796 h 0.05811 q 0.10412,0 0.147705,-0.062957 0.02664,-0.038743 0.02664,-0.1767626 V 6.0780252 h -0.197345 q -0.115016,0 -0.163445,0.01695 -0.06296,0.023003 -0.107752,0.088381 -0.0448,0.065378 -0.05327,0.1767626 h -0.04601 l 0.01937,-0.3850036 z m 1.216754,-0.037532 v 0.5678198 h -0.0448 q -0.02179,-0.1634449 -0.0787,-0.2603012 -0.05569,-0.096856 -0.159813,-0.1537593 -0.104121,-0.056903 -0.215505,-0.056903 -0.125914,0 -0.208241,0.077485 -0.08233,0.076274 -0.08233,0.1743412 0,0.075064 0.05206,0.1368095 0.07506,0.090803 0.357157,0.2421406 0.230034,0.1234918 0.313573,0.1900804 0.08475,0.065378 0.129545,0.15497 0.04601,0.089592 0.04601,0.187659 0,0.1864483 -0.145285,0.3220471 -0.144074,0.134388 -0.371686,0.134388 -0.07143,0 -0.134388,-0.010896 -0.03753,-0.00605 -0.15618,-0.043585 -0.117439,-0.038742 -0.148917,-0.038742 -0.03027,0 -0.04843,0.01816 -0.01695,0.018161 -0.02542,0.075064 h -0.0448 v -0.562977 h 0.0448 q 0.03148,0.1767627 0.08475,0.265144 0.05327,0.087171 0.162235,0.1452844 0.110174,0.058114 0.24093,0.058114 0.151337,0 0.238508,-0.079906 0.08838,-0.079906 0.08838,-0.1888697 0,-0.060535 -0.0339,-0.1222811 -0.03269,-0.061746 -0.10291,-0.1150168 -0.04722,-0.036321 -0.25788,-0.1537593 -0.210662,-0.1186489 -0.300254,-0.1888696 -0.08838,-0.070221 -0.134388,-0.1549701 -0.04601,-0.084749 -0.04601,-0.1864482 0,-0.1767627 0.135599,-0.3038865 0.135599,-0.1283346 0.34505,-0.1283346 0.130756,0 0.277251,0.064167 0.0678,0.030268 0.09565,0.030268 0.03148,0 0.05085,-0.018161 0.02058,-0.019371 0.03269,-0.076274 z"
       id="text111"
       transform="scale(1.0040826,0.99593398)"
       aria-label="RECRUITMENT CONSULTANTS" /><path
       id="rect115"
       style="display:inline;fill:#949494;fill-opacity:0.980392;stroke-width:0.264999;stroke-dasharray:none"
       d="m 2.237615,0.12385 v 0.25321 h 1.87792 v 3.21738 h 0.24133 V 0.12385 Z m -2.11305,0.56896 v 3.66334 h 2.1425 V 4.11482 H 0.377775 V 0.69281 Z m 2.35644,0.44028 v 0.24185 h 0.76327 v 0.68368 h -0.71882 v 0.23926 h 0.71882 v 0.78135 h -0.76327 v 0.24236 h 0.98547 v -2.1885 z m -1.43247,5.2e-4 v 2.18901 h 0.98547 V 3.08026 H 1.270745 V 2.29839 h 0.71882 V 2.05965 H 1.270745 V 1.37597 h 0.76326 V 1.13361 Z" /></g></svg>
