<?xml version="1.0" encoding="UTF-8"?>
<!-- Created with Inkscape (http://www.inkscape.org/) -->
<svg width="35.7mm" height="8.39mm" version="1.1" viewBox="0 0 35.7 8.39" xml:space="preserve" xmlns="http://www.w3.org/2000/svg"><path transform="matrix(.265 0 0 .265 -79.2 -144)" d="m326 547v6.28h3.49q1.36 0 1.82-0.41 0.609-0.539 0.68-1.9h0.434v5.53h-0.434q-0.164-1.16-0.328-1.49-0.211-0.41-0.691-0.645-0.48-0.234-1.48-0.234h-3.49v5.24q0 1.05 0.0937 1.29 0.0937 0.223 0.328 0.363 0.234 0.129 0.891 0.129h2.7q1.35 0 1.96-0.188 0.609-0.188 1.17-0.738 0.727-0.727 1.49-2.19h0.469l-1.37 3.98h-12.2v-0.434h0.562q0.562 0 1.07-0.27 0.375-0.188 0.504-0.562 0.141-0.375 0.141-1.54v-10.3q0-1.51-0.305-1.86-0.422-0.469-1.41-0.469h-0.562v-0.434h12.2l0.176 3.48h-0.457q-0.246-1.25-0.551-1.72-0.293-0.469-0.879-0.715-0.469-0.176-1.65-0.176zm17 6.25q1.89-2.27 3.6-2.27 0.879 0 1.51 0.445 0.633 0.434 1.01 1.44 0.258 0.703 0.258 2.16v4.58q0 1.02 0.164 1.38 0.129 0.293 0.41 0.457 0.293 0.164 1.07 0.164v0.422h-5.31v-0.422h0.223q0.75 0 1.04-0.223 0.305-0.234 0.422-0.68 0.0469-0.176 0.0469-1.1v-4.39q0-1.46-0.387-2.12-0.375-0.668-1.28-0.668-1.39 0-2.78 1.52v5.66q0 1.09 0.129 1.35 0.164 0.34 0.445 0.504 0.293 0.152 1.17 0.152v0.422h-5.31v-0.422h0.234q0.82 0 1.1-0.41 0.293-0.422 0.293-1.59v-3.98q0-1.93-0.0937-2.36-0.082-0.422-0.27-0.574-0.176-0.152-0.48-0.152-0.328 0-0.785 0.176l-0.176-0.422 3.23-1.31h0.504zm15.5-7.89v10.7l2.73-2.48q0.867-0.797 1.01-1.01 0.0937-0.141 0.0937-0.281 0-0.234-0.199-0.398-0.188-0.176-0.633-0.199v-0.375h4.66v0.375q-0.961 0.0234-1.61 0.293-0.633 0.27-1.39 0.961l-2.75 2.54 2.75 3.48q1.15 1.44 1.55 1.83 0.562 0.551 0.984 0.715 0.293 0.117 1.02 0.117v0.422h-5.21v-0.422q0.445-0.0117 0.598-0.129 0.164-0.129 0.164-0.352 0-0.27-0.469-0.867l-3.29-4.21v3.56q0 1.04 0.141 1.37 0.152 0.328 0.422 0.469 0.27 0.141 1.17 0.152v0.422h-5.46v-0.422q0.82 0 1.23-0.199 0.246-0.129 0.375-0.398 0.176-0.387 0.176-1.34v-9.77q0-1.86-0.082-2.27-0.082-0.422-0.27-0.574-0.188-0.164-0.492-0.164-0.246 0-0.738 0.199l-0.199-0.41 3.19-1.31zm18.3 15.1q-1.65 1.28-2.07 1.48-0.633 0.293-1.35 0.293-1.11 0-1.84-0.762-0.715-0.762-0.715-2 0-0.785 0.352-1.36 0.48-0.797 1.66-1.5 1.2-0.703 3.96-1.71v-0.422q0-1.61-0.516-2.2-0.504-0.598-1.48-0.598-0.738 0-1.17 0.398-0.445 0.398-0.445 0.914l0.0234 0.68q0 0.539-0.281 0.832-0.27 0.293-0.715 0.293-0.434 0-0.715-0.305-0.27-0.305-0.27-0.832 0-1.01 1.03-1.85t2.89-0.844q1.43 0 2.34 0.48 0.691 0.363 1.02 1.14 0.211 0.504 0.211 2.06v3.64q0 1.54 0.0586 1.89 0.0586 0.34 0.188 0.457 0.141 0.117 0.316 0.117 0.188 0 0.328-0.082 0.246-0.152 0.949-0.855v0.656q-1.31 1.76-2.51 1.76-0.574 0-0.914-0.398-0.34-0.398-0.352-1.36zm0-0.762v-4.09q-1.77 0.703-2.29 0.996-0.926 0.516-1.32 1.08t-0.398 1.23q0 0.844 0.504 1.41 0.504 0.551 1.16 0.551 0.891 0 2.34-1.17zm17.1 2.31-6.14-13.4v10.6q0 1.46 0.316 1.83 0.434 0.492 1.37 0.492h0.562v0.434h-5.53v-0.434h0.562q1.01 0 1.43-0.609 0.258-0.375 0.258-1.71v-10.4q0-1.05-0.234-1.52-0.164-0.34-0.609-0.562-0.434-0.234-1.41-0.234v-0.434h4.5l5.77 12.4 5.67-12.4h4.5v0.434h-0.551q-1.02 0-1.44 0.609-0.258 0.375-0.258 1.71v10.4q0 1.46 0.328 1.83 0.434 0.492 1.37 0.492h0.551v0.434h-6.75v-0.434h0.562q1.02 0 1.43-0.609 0.258-0.375 0.258-1.71v-10.6l-6.13 13.4zm21.8-1.55q-1.65 1.28-2.07 1.48-0.633 0.293-1.35 0.293-1.11 0-1.84-0.762-0.715-0.762-0.715-2 0-0.785 0.352-1.36 0.48-0.797 1.66-1.5 1.2-0.703 3.96-1.71v-0.422q0-1.61-0.516-2.2-0.504-0.598-1.48-0.598-0.738 0-1.17 0.398-0.445 0.398-0.445 0.914l0.0234 0.68q0 0.539-0.281 0.832-0.27 0.293-0.715 0.293-0.434 0-0.715-0.305-0.27-0.305-0.27-0.832 0-1.01 1.03-1.85t2.89-0.844q1.43 0 2.34 0.48 0.691 0.363 1.02 1.14 0.211 0.504 0.211 2.06v3.64q0 1.54 0.0586 1.89 0.0586 0.34 0.188 0.457 0.141 0.117 0.316 0.117 0.188 0 0.328-0.082 0.246-0.152 0.949-0.855v0.656q-1.31 1.76-2.51 1.76-0.574 0-0.914-0.398-0.34-0.398-0.352-1.36zm0-0.762v-4.09q-1.77 0.703-2.29 0.996-0.926 0.516-1.32 1.08-0.398 0.562-0.398 1.23 0 0.844 0.504 1.41 0.504 0.551 1.16 0.551 0.891 0 2.34-1.17zm7.57-8.43h5.05v0.434q-0.48 0-0.68 0.164-0.188 0.164-0.188 0.434 0 0.281 0.41 0.867 0.129 0.188 0.387 0.586l0.762 1.22 0.879-1.22q0.844-1.16 0.844-1.46 0-0.246-0.199-0.41-0.199-0.176-0.645-0.176v-0.434h3.63v0.434q-0.574 0.0352-0.996 0.316-0.574 0.398-1.57 1.73l-1.46 1.96 2.67 3.84q0.984 1.42 1.41 1.71 0.422 0.281 1.09 0.316v0.422h-5.06v-0.422q0.527 0 0.82-0.234 0.223-0.164 0.223-0.434t-0.75-1.36l-1.57-2.3-1.72 2.3q-0.797 1.07-0.797 1.27 0 0.281 0.258 0.516 0.27 0.223 0.797 0.246v0.422h-3.5v-0.422q0.422-0.0586 0.738-0.293 0.445-0.34 1.5-1.73l2.25-2.99-2.04-2.95q-0.867-1.27-1.35-1.58-0.469-0.328-1.18-0.328z" display="none" fill="currentColor" style="white-space:pre" aria-label="EnkaMax"/><path transform="scale(1 .996)" d="m1.65 7.62h-0.438l-0.556-0.768q-0.0617 0.00242-0.1 0.00242-0.0157 0-0.0339 0-0.0182-0.00121-0.0375-0.00242v0.477q0 0.155 0.0339 0.193 0.046 0.0533 0.138 0.0533h0.0642v0.0448h-0.703v-0.0448h0.0617q0.104 0 0.149-0.0678 0.0254-0.0375 0.0254-0.178v-1.06q0-0.155-0.0339-0.193-0.0472-0.0533-0.14-0.0533h-0.0617v-0.0448h0.598q0.262 0 0.385 0.0387 0.125 0.0375 0.211 0.14 0.0872 0.102 0.0872 0.243 0 0.151-0.0993 0.263-0.0981 0.111-0.305 0.157l0.339 0.471q0.116 0.162 0.2 0.216 0.0835 0.0533 0.218 0.0678zm-1.17-0.844q0.023 0 0.04 0.00121 0.0169 0 0.0278 0 0.235 0 0.354-0.102 0.12-0.102 0.12-0.259 0-0.154-0.0969-0.249-0.0956-0.0969-0.254-0.0969-0.0702 0-0.19 0.023zm1.66-0.708v0.649h0.361q0.14 0 0.188-0.0424 0.063-0.0557 0.0702-0.196h0.0448v0.571h-0.0448q-0.0169-0.12-0.0339-0.154-0.0218-0.0424-0.0714-0.0666-0.0496-0.0242-0.153-0.0242h-0.361v0.541q0 0.109 0.00969 0.133 0.00969 0.023 0.0339 0.0375 0.0242 0.0133 0.092 0.0133h0.278q0.139 0 0.202-0.0194 0.063-0.0194 0.121-0.0763 0.0751-0.0751 0.154-0.226h0.0484l-0.142 0.412h-1.27v-0.0448h0.0581q0.0581 0 0.11-0.0278 0.0387-0.0194 0.0521-0.0581 0.0145-0.0387 0.0145-0.159v-1.07q0-0.156-0.0315-0.193-0.0436-0.0484-0.145-0.0484h-0.0581v-0.0448h1.27l0.0182 0.36h-0.0472q-0.0254-0.13-0.0569-0.178-0.0303-0.0484-0.0908-0.0739-0.0484-0.0182-0.171-0.0182zm2.49-0.127 0.0375 0.558h-0.0375q-0.0751-0.251-0.214-0.361-0.139-0.11-0.334-0.11-0.163 0-0.295 0.0835-0.132 0.0823-0.208 0.264-0.0751 0.182-0.0751 0.452 0 0.223 0.0714 0.386 0.0714 0.163 0.214 0.251 0.144 0.0872 0.328 0.0872 0.16 0 0.282-0.0678 0.122-0.069 0.269-0.272l0.0375 0.0242q-0.123 0.219-0.288 0.321-0.165 0.102-0.391 0.102-0.408 0-0.632-0.303-0.167-0.225-0.167-0.53 0-0.246 0.11-0.452 0.11-0.206 0.303-0.318 0.194-0.114 0.423-0.114 0.178 0 0.351 0.0872 0.0508 0.0266 0.0726 0.0266 0.0327 0 0.0569-0.023 0.0315-0.0327 0.0448-0.0908zm1.84 1.68h-0.438l-0.556-0.768q-0.0617 0.00242-0.1 0.00242-0.0157 0-0.0339 0-0.0182-0.00121-0.0375-0.00242v0.477q0 0.155 0.0339 0.193 0.046 0.0533 0.138 0.0533h0.0642v0.0448h-0.703v-0.0448h0.0617q0.104 0 0.149-0.0678 0.0254-0.0375 0.0254-0.178v-1.06q0-0.155-0.0339-0.193-0.0472-0.0533-0.14-0.0533h-0.0617v-0.0448h0.598q0.262 0 0.385 0.0387 0.125 0.0375 0.211 0.14 0.0872 0.102 0.0872 0.243 0 0.151-0.0993 0.263-0.0981 0.111-0.305 0.157l0.339 0.471q0.116 0.162 0.2 0.216 0.0835 0.0533 0.218 0.0678zm-1.17-0.844q0.023 0 0.04 0.00121 0.017 0 0.0278 0 0.235 0 0.354-0.102 0.12-0.102 0.12-0.259 0-0.154-0.0969-0.249-0.0956-0.0969-0.254-0.0969-0.0702 0-0.19 0.023zm2.33-0.753v-0.0448h0.581v0.0448h-0.0617q-0.0969 0-0.149 0.0811-0.0254 0.0375-0.0254 0.174v0.666q0 0.247-0.0496 0.384-0.0484 0.136-0.193 0.234-0.143 0.0969-0.39 0.0969-0.269 0-0.408-0.0932-0.139-0.0932-0.197-0.251-0.0387-0.108-0.0387-0.404v-0.642q0-0.151-0.0424-0.199-0.0412-0.0472-0.134-0.0472h-0.0617v-0.0448h0.709v0.0448h-0.063q-0.102 0-0.145 0.0642-0.0303 0.0436-0.0303 0.182v0.716q0 0.0956 0.017 0.219 0.0182 0.123 0.0642 0.193 0.046 0.069 0.132 0.114 0.0872 0.0448 0.213 0.0448 0.161 0 0.288-0.0702 0.127-0.0702 0.173-0.179 0.0472-0.11 0.0472-0.372v-0.665q0-0.154-0.0339-0.193-0.0472-0.0533-0.14-0.0533zm1.37 1.55v0.0448h-0.703v-0.0448h0.0581q0.102 0 0.148-0.0593 0.0291-0.0387 0.0291-0.186v-1.06q0-0.125-0.0157-0.165-0.0121-0.0303-0.0496-0.0521-0.0533-0.0291-0.111-0.0291h-0.0581v-0.0448h0.703v0.0448h-0.0593q-0.1 0-0.146 0.0593-0.0303 0.0387-0.0303 0.186v1.06q0 0.125 0.0157 0.165 0.0121 0.0303 0.0508 0.0521 0.0521 0.0291 0.11 0.0291zm1.5-1.6 0.0182 0.385h-0.046q-0.0133-0.102-0.0363-0.145-0.0375-0.0702-0.1-0.103-0.0618-0.0339-0.163-0.0339h-0.231v1.25q0 0.151 0.0327 0.189 0.046 0.0508 0.142 0.0508h0.0569v0.0448h-0.696v-0.0448h0.0581q0.104 0 0.148-0.063 0.0266-0.0387 0.0266-0.177v-1.25h-0.197q-0.115 0-0.163 0.017-0.063 0.023-0.108 0.0884-0.0448 0.0654-0.0533 0.177h-0.046l0.0194-0.385zm1.09 1.64-0.634-1.38v1.1q0 0.151 0.0327 0.189 0.0448 0.0508 0.142 0.0508h0.0581v0.0448h-0.571v-0.0448h0.0581q0.104 0 0.148-0.063 0.0266-0.0387 0.0266-0.177v-1.07q0-0.109-0.0242-0.157-0.017-0.0351-0.063-0.0581-0.0448-0.0242-0.145-0.0242v-0.0448h0.465l0.596 1.28 0.586-1.28h0.465v0.0448h-0.0569q-0.105 0-0.149 0.063-0.0266 0.0387-0.0266 0.177v1.07q0 0.151 0.0339 0.189 0.0448 0.0508 0.142 0.0508h0.0569v0.0448h-0.697v-0.0448h0.0581q0.105 0 0.148-0.063 0.0266-0.0387 0.0266-0.177v-1.1l-0.633 1.38zm1.71-1.55v0.649h0.361q0.14 0 0.188-0.0424 0.063-0.0557 0.0702-0.196h0.0448v0.571h-0.0448q-0.017-0.12-0.0339-0.154-0.0218-0.0424-0.0714-0.0666t-0.153-0.0242h-0.361v0.541q0 0.109 0.0097 0.133 0.0097 0.023 0.0339 0.0375 0.0242 0.0133 0.092 0.0133h0.278q0.139 0 0.202-0.0194 0.063-0.0194 0.121-0.0763 0.0751-0.0751 0.154-0.226h0.0484l-0.142 0.412h-1.27v-0.0448h0.0581q0.0581 0 0.11-0.0278 0.0387-0.0194 0.0521-0.0581 0.0145-0.0387 0.0145-0.159v-1.07q0-0.156-0.0315-0.193-0.0436-0.0484-0.145-0.0484h-0.0581v-0.0448h1.27l0.0182 0.36h-0.0472q-0.0254-0.13-0.0569-0.178-0.0303-0.0484-0.0908-0.0739-0.0484-0.0182-0.171-0.0182zm0.964-0.0896h0.446l1 1.23v-0.947q0-0.151-0.0339-0.189-0.0448-0.0508-0.142-0.0508h-0.0569v-0.0448h0.571v0.0448h-0.0581q-0.104 0-0.148 0.063-0.0266 0.0387-0.0266 0.177v1.38h-0.0436l-1.08-1.32v1.01q0 0.151 0.0327 0.189 0.046 0.0508 0.142 0.0508h0.0581v0.0448h-0.571v-0.0448h0.0569q0.105 0 0.149-0.063 0.0266-0.0387 0.0266-0.177v-1.14q-0.0714-0.0835-0.109-0.11-0.0363-0.0266-0.108-0.0496-0.0351-0.0109-0.107-0.0109zm3.26 0 0.0182 0.385h-0.046q-0.0133-0.102-0.0363-0.145-0.0375-0.0702-0.1-0.103-0.0618-0.0339-0.163-0.0339h-0.231v1.25q0 0.151 0.0327 0.189 0.046 0.0508 0.142 0.0508h0.0569v0.0448h-0.696v-0.0448h0.0581q0.104 0 0.148-0.063 0.0266-0.0387 0.0266-0.177v-1.25h-0.197q-0.115 0-0.163 0.017-0.063 0.023-0.108 0.0884-0.0448 0.0654-0.0533 0.177h-0.046l0.0194-0.385zm2.15-0.0375 0.0375 0.558h-0.0375q-0.0751-0.251-0.214-0.361-0.139-0.11-0.334-0.11-0.163 0-0.295 0.0835-0.132 0.0823-0.208 0.264-0.0751 0.182-0.0751 0.452 0 0.223 0.0714 0.386 0.0714 0.163 0.214 0.251 0.144 0.0872 0.328 0.0872 0.16 0 0.282-0.0678 0.122-0.069 0.269-0.272l0.0375 0.0242q-0.123 0.219-0.288 0.321-0.165 0.102-0.391 0.102-0.408 0-0.632-0.303-0.167-0.225-0.167-0.53 0-0.246 0.11-0.452 0.11-0.206 0.303-0.318 0.194-0.114 0.423-0.114 0.178 0 0.351 0.0872 0.0508 0.0266 0.0726 0.0266 0.0327 0 0.0569-0.023 0.0315-0.0327 0.0448-0.0908zm1.07 0q0.32 0 0.553 0.243 0.235 0.242 0.235 0.605 0 0.374-0.236 0.621-0.236 0.247-0.571 0.247-0.339 0-0.57-0.241-0.23-0.241-0.23-0.624 0-0.391 0.266-0.638 0.231-0.214 0.553-0.214zm-0.023 0.0884q-0.22 0-0.354 0.163-0.166 0.203-0.166 0.596 0 0.402 0.172 0.619 0.132 0.165 0.349 0.165 0.231 0 0.381-0.18 0.151-0.18 0.151-0.569 0-0.421-0.166-0.628-0.133-0.165-0.368-0.165zm0.874-0.0508h0.446l1 1.23v-0.947q0-0.151-0.0339-0.189-0.0448-0.0508-0.142-0.0508h-0.0569v-0.0448h0.571v0.0448h-0.0581q-0.104 0-0.148 0.063-0.0266 0.0387-0.0266 0.177v1.38h-0.0436l-1.08-1.32v1.01q0 0.151 0.0327 0.189 0.046 0.0508 0.142 0.0508h0.0581v0.0448h-0.571v-0.0448h0.0569q0.105 0 0.149-0.063 0.0266-0.0387 0.0266-0.177v-1.14q-0.0714-0.0835-0.109-0.11-0.0363-0.0266-0.108-0.0496-0.0351-0.0109-0.107-0.0109zm2.96-0.0375v0.568h-0.0448q-0.0218-0.163-0.0787-0.26-0.0557-0.0969-0.16-0.154-0.104-0.0569-0.216-0.0569-0.126 0-0.208 0.0775-0.0823 0.0763-0.0823 0.174 0 0.0751 0.0521 0.137 0.0751 0.0908 0.357 0.242 0.23 0.123 0.314 0.19 0.0848 0.0654 0.13 0.155 0.046 0.0896 0.046 0.188 0 0.186-0.145 0.322-0.144 0.134-0.372 0.134-0.0714 0-0.134-0.0109-0.0375-0.00605-0.156-0.0436-0.117-0.0387-0.149-0.0387-0.0303 0-0.0484 0.0182-0.017 0.0182-0.0254 0.0751h-0.0448v-0.563h0.0448q0.0315 0.177 0.0848 0.265 0.0533 0.0872 0.162 0.145 0.11 0.0581 0.241 0.0581 0.151 0 0.239-0.0799 0.0884-0.0799 0.0884-0.189 0-0.0605-0.0339-0.122-0.0327-0.0617-0.103-0.115-0.0472-0.0363-0.258-0.154-0.211-0.119-0.3-0.189-0.0884-0.0702-0.134-0.155-0.046-0.0847-0.046-0.186 0-0.177 0.136-0.304 0.136-0.128 0.345-0.128 0.131 0 0.277 0.0642 0.0678 0.0303 0.0956 0.0303 0.0315 0 0.0508-0.0182 0.0206-0.0194 0.0327-0.0763zm1.42 0.0823v-0.0448h0.581v0.0448h-0.0618q-0.0969 0-0.149 0.0811-0.0254 0.0375-0.0254 0.174v0.666q0 0.247-0.0496 0.384-0.0484 0.136-0.193 0.234-0.143 0.0969-0.39 0.0969-0.269 0-0.408-0.0932t-0.197-0.251q-0.0387-0.108-0.0387-0.404v-0.642q0-0.151-0.0424-0.199-0.0412-0.0472-0.134-0.0472h-0.0618v-0.0448h0.709v0.0448h-0.063q-0.102 0-0.145 0.0642-0.0303 0.0436-0.0303 0.182v0.716q0 0.0956 0.017 0.219 0.0182 0.123 0.0642 0.193t0.132 0.114q0.0872 0.0448 0.213 0.0448 0.161 0 0.288-0.0702 0.127-0.0702 0.173-0.179 0.0472-0.11 0.0472-0.372v-0.665q0-0.154-0.0339-0.193-0.0472-0.0533-0.14-0.0533zm2.03 1.14 0.04 0.00847-0.14 0.446h-1.27v-0.0448h0.0618q0.104 0 0.149-0.0678 0.0254-0.0387 0.0254-0.179v-1.06q0-0.154-0.0339-0.193-0.0472-0.0533-0.14-0.0533h-0.0618v-0.0448h0.743v0.0448q-0.131-0.00121-0.184 0.0242-0.0521 0.0254-0.0714 0.0642t-0.0194 0.185v1.03q0 0.1 0.0194 0.138 0.0145 0.0254 0.0448 0.0375t0.189 0.0121h0.12q0.189 0 0.265-0.0278 0.0763-0.0278 0.139-0.0981 0.063-0.0714 0.126-0.224zm1.3-1.19 0.0182 0.385h-0.046q-0.0133-0.102-0.0363-0.145-0.0375-0.0702-0.1-0.103-0.0618-0.0339-0.163-0.0339h-0.231v1.25q0 0.151 0.0327 0.189 0.046 0.0508 0.142 0.0508h0.0569v0.0448h-0.696v-0.0448h0.0581q0.104 0 0.148-0.063 0.0266-0.0387 0.0266-0.177v-1.25h-0.197q-0.115 0-0.163 0.017-0.063 0.023-0.108 0.0884-0.0448 0.0654-0.0533 0.177h-0.046l0.0194-0.385zm1.02 1.09h-0.636l-0.111 0.259q-0.0412 0.0956-0.0412 0.143 0 0.0375 0.0351 0.0666 0.0363 0.0278 0.155 0.0363v0.0448h-0.517v-0.0448q0.103-0.0182 0.133-0.0472 0.0618-0.0581 0.137-0.236l0.578-1.35h0.0424l0.571 1.37q0.069 0.165 0.125 0.214 0.0569 0.0484 0.157 0.0545v0.0448h-0.648v-0.0448q0.0981-0.00484 0.132-0.0327 0.0351-0.0278 0.0351-0.0678 0-0.0533-0.0484-0.168zm-0.0339-0.0896-0.278-0.663-0.286 0.663zm0.657-1h0.446l1 1.23v-0.947q0-0.151-0.0339-0.189-0.0448-0.0508-0.142-0.0508h-0.0569v-0.0448h0.571v0.0448h-0.0581q-0.104 0-0.148 0.063-0.0266 0.0387-0.0266 0.177v1.38h-0.0436l-1.08-1.32v1.01q0 0.151 0.0327 0.189 0.046 0.0508 0.142 0.0508h0.0581v0.0448h-0.571v-0.0448h0.0569q0.105 0 0.149-0.063 0.0266-0.0387 0.0266-0.177v-1.14q-0.0714-0.0835-0.109-0.11-0.0363-0.0266-0.108-0.0496-0.0351-0.0109-0.107-0.0109zm3.26 0 0.0182 0.385h-0.046q-0.0133-0.102-0.0363-0.145-0.0375-0.0702-0.1-0.103-0.0618-0.0339-0.163-0.0339h-0.231v1.25q0 0.151 0.0327 0.189 0.046 0.0508 0.142 0.0508h0.0569v0.0448h-0.696v-0.0448h0.0581q0.104 0 0.148-0.063 0.0266-0.0387 0.0266-0.177v-1.25h-0.197q-0.115 0-0.163 0.017-0.063 0.023-0.108 0.0884-0.0448 0.0654-0.0533 0.177h-0.046l0.0194-0.385zm1.22-0.0375v0.568h-0.0448q-0.0218-0.163-0.0787-0.26-0.0557-0.0969-0.16-0.154-0.104-0.0569-0.216-0.0569-0.126 0-0.208 0.0775-0.0823 0.0763-0.0823 0.174 0 0.0751 0.0521 0.137 0.0751 0.0908 0.357 0.242 0.23 0.123 0.314 0.19 0.0848 0.0654 0.13 0.155 0.046 0.0896 0.046 0.188 0 0.186-0.145 0.322-0.144 0.134-0.372 0.134-0.0714 0-0.134-0.0109-0.0375-0.00605-0.156-0.0436-0.117-0.0387-0.149-0.0387-0.0303 0-0.0484 0.0182-0.017 0.0182-0.0254 0.0751h-0.0448v-0.563h0.0448q0.0315 0.177 0.0848 0.265 0.0533 0.0872 0.162 0.145 0.11 0.0581 0.241 0.0581 0.151 0 0.239-0.0799 0.0884-0.0799 0.0884-0.189 0-0.0605-0.0339-0.122-0.0327-0.0617-0.103-0.115-0.0472-0.0363-0.258-0.154-0.211-0.119-0.3-0.189-0.0884-0.0702-0.134-0.155-0.046-0.0847-0.046-0.186 0-0.177 0.136-0.304 0.136-0.128 0.345-0.128 0.131 0 0.277 0.0642 0.0678 0.0303 0.0956 0.0303 0.0315 0 0.0508-0.0182 0.0206-0.0194 0.0327-0.0763z" display="none" fill="var(--secondary)" fill-opacity=".992" stroke-width=".266" aria-label="RECRUITMENT CONSULTANTS"/><path d="m2.24 0.124v0.253h1.88v3.22h0.241v-3.47zm-2.11 0.569v3.66h2.14v-0.241h-1.89v-3.42zm2.36 0.44v0.242h0.763v0.684h-0.719v0.239h0.719v0.781h-0.763v0.242h0.985v-2.19zm-1.43 5.2e-4v2.19h0.985v-0.242h-0.763v-0.782h0.719v-0.239h-0.719v-0.684h0.763v-0.242z" display="none" fill="var(--secondary)" fill-opacity=".98" stroke-width=".265"/><path transform="scale(1.03 .973)" d="m1.35 0.489v1.87h1.04q0.405 0 0.541-0.122 0.182-0.161 0.203-0.566h0.129v1.65h-0.129q-0.0489-0.346-0.0978-0.444-0.0629-0.122-0.206-0.192-0.143-0.0698-0.44-0.0698h-1.04v1.56q0 0.314 0.0279 0.384 0.0279 0.0664 0.0978 0.108 0.0698 0.0384 0.265 0.0384h0.803q0.402 0 0.583-0.0559 0.182-0.0559 0.349-0.22 0.217-0.217 0.444-0.653h0.14l-0.409 1.19h-3.65v-0.129h0.168q0.168 0 0.318-0.0803 0.112-0.0559 0.15-0.168 0.0419-0.112 0.0419-0.458v-3.08q0-0.451-0.0908-0.555-0.126-0.14-0.419-0.14h-0.168v-0.129h3.65l0.0524 1.04h-0.136q-0.0733-0.374-0.164-0.513-0.0873-0.14-0.262-0.213-0.14-0.0524-0.492-0.0524zm5.22 1.86q0.562-0.678 1.07-0.678 0.262 0 0.451 0.133 0.189 0.129 0.3 0.43 0.0768 0.21 0.0768 0.643v1.37q0 0.304 0.0489 0.412 0.0384 0.0873 0.122 0.136 0.0873 0.0489 0.318 0.0489v0.126h-1.58v-0.126h0.0664q0.224 0 0.311-0.0664 0.0908-0.0698 0.126-0.203 0.014-0.0524 0.014-0.328v-1.31q0-0.437-0.115-0.632-0.112-0.199-0.381-0.199-0.416 0-0.828 0.454v1.69q0 0.325 0.0384 0.402 0.0489 0.101 0.133 0.15 0.0873 0.0454 0.349 0.0454v0.126h-1.58v-0.126h0.0698q0.244 0 0.328-0.122 0.0873-0.126 0.0873-0.475v-1.19q0-0.576-0.0279-0.702-0.0244-0.126-0.0803-0.171-0.0524-0.0454-0.143-0.0454-0.0978 0-0.234 0.0524l-0.0524-0.126 0.964-0.391h0.15zm4.78-2.35v3.18l0.814-0.74q0.258-0.237 0.3-0.3 0.0279-0.0419 0.0279-0.0838 0-0.0698-0.0594-0.119-0.0559-0.0524-0.189-0.0594v-0.112h1.39v0.112q-0.286 0.00699-0.478 0.0873-0.189 0.0803-0.416 0.286l-0.821 0.758 0.821 1.04q0.342 0.43 0.461 0.545 0.168 0.164 0.293 0.213 0.0873 0.0349 0.304 0.0349v0.126h-1.55v-0.126q0.133-0.00349 0.178-0.0384 0.0489-0.0384 0.0489-0.105 0-0.0803-0.14-0.258l-0.981-1.25v1.06q0 0.311 0.0419 0.409 0.0454 0.0978 0.126 0.14 0.0803 0.0419 0.349 0.0454v0.126h-1.63v-0.126q0.244 0 0.367-0.0594 0.0733-0.0384 0.112-0.119 0.0524-0.115 0.0524-0.398v-2.91q0-0.555-0.0244-0.678-0.0244-0.126-0.0803-0.171-0.0559-0.0489-0.147-0.0489-0.0733 0-0.22 0.0594l-0.0594-0.122 0.95-0.391zm5.63 4.51q-0.492 0.381-0.618 0.44-0.189 0.0873-0.402 0.0873-0.332 0-0.548-0.227-0.213-0.227-0.213-0.597 0-0.234 0.105-0.405 0.143-0.237 0.496-0.447 0.356-0.21 1.18-0.51v-0.126q0-0.478-0.154-0.657-0.15-0.178-0.44-0.178-0.22 0-0.349 0.119-0.133 0.119-0.133 0.272l7e-3 0.203q0 0.161-0.0838 0.248-0.0803 0.0873-0.213 0.0873-0.129 0-0.213-0.0908-0.0803-0.0908-0.0803-0.248 0-0.3 0.307-0.552t0.863-0.251q0.426 0 0.698 0.143 0.206 0.108 0.304 0.339 0.0629 0.15 0.0629 0.615v1.09q0 0.458 0.0175 0.562 0.0175 0.101 0.0559 0.136 0.0419 0.0349 0.0943 0.0349 0.0559 0 0.0978-0.0244 0.0733-0.0454 0.283-0.255v0.196q-0.391 0.524-0.747 0.524-0.171 0-0.272-0.119-0.101-0.119-0.105-0.405zm0-0.227v-1.22q-0.527 0.21-0.681 0.297-0.276 0.154-0.395 0.321t-0.119 0.367q0 0.251 0.15 0.419 0.15 0.164 0.346 0.164 0.265 0 0.698-0.349zm5.26 0.688-1.83-3.98v3.16q0 0.437 0.0943 0.545 0.129 0.147 0.409 0.147h0.168v0.129h-1.65v-0.129h0.168q0.3 0 0.426-0.182 0.0768-0.112 0.0768-0.51v-3.09q0-0.314-0.0698-0.454-0.0489-0.101-0.182-0.168-0.129-0.0698-0.419-0.0698v-0.129h1.34l1.72 3.71 1.69-3.71h1.34v0.129h-0.164q-0.304 0-0.43 0.182-0.0768 0.112-0.0768 0.51v3.09q0 0.437 0.0978 0.545 0.129 0.147 0.409 0.147h0.164v0.129h-2.01v-0.129h0.168q0.304 0 0.426-0.182 0.0768-0.112 0.0768-0.51v-3.16l-1.83 3.98zm6.66-0.461q-0.492 0.381-0.618 0.44-0.189 0.0873-0.402 0.0873-0.332 0-0.548-0.227-0.213-0.227-0.213-0.597 0-0.234 0.105-0.405 0.143-0.237 0.496-0.447 0.356-0.21 1.18-0.51v-0.126q0-0.478-0.154-0.657-0.15-0.178-0.44-0.178-0.22 0-0.349 0.119-0.133 0.119-0.133 0.272l7e-3 0.203q0 0.161-0.0838 0.248-0.0803 0.0873-0.213 0.0873-0.129 0-0.213-0.0908-0.0803-0.0908-0.0803-0.248 0-0.3 0.307-0.552 0.307-0.251 0.863-0.251 0.426 0 0.698 0.143 0.206 0.108 0.304 0.339 0.0629 0.15 0.0629 0.615v1.09q0 0.458 0.0175 0.562 0.0175 0.101 0.0559 0.136 0.0419 0.0349 0.0943 0.0349 0.0559 0 0.0978-0.0244 0.0733-0.0454 0.283-0.255v0.196q-0.391 0.524-0.747 0.524-0.171 0-0.272-0.119t-0.105-0.405zm0-0.227v-1.22q-0.527 0.21-0.681 0.297-0.276 0.154-0.395 0.321t-0.119 0.367q0 0.251 0.15 0.419 0.15 0.164 0.346 0.164 0.265 0 0.698-0.349zm2.42-2.51h1.51v0.129q-0.143 0-0.203 0.0489-0.0559 0.0489-0.0559 0.129 0 0.0838 0.122 0.258 0.0384 0.0559 0.115 0.175l0.227 0.363 0.262-0.363q0.251-0.346 0.251-0.437 0-0.0733-0.0594-0.122-0.0594-0.0524-0.192-0.0524v-0.129h1.08v0.129q-0.171 0.0105-0.297 0.0943-0.171 0.119-0.468 0.517l-0.437 0.583 0.796 1.15q0.293 0.423 0.419 0.51 0.126 0.0838 0.325 0.0943v0.126h-1.51v-0.126q0.157 0 0.244-0.0698 0.0664-0.0489 0.0664-0.129 0-0.0803-0.224-0.405l-0.468-0.685-0.513 0.685q-0.237 0.318-0.237 0.377 0 0.0838 0.0768 0.154 0.0803 0.0664 0.237 0.0733v0.126h-1.04v-0.126q0.126-0.0175 0.22-0.0873 0.133-0.101 0.447-0.517l0.671-0.891-0.608-0.88q-0.258-0.377-0.402-0.471-0.14-0.0978-0.353-0.0978z" fill="currentColor" stroke-width=".119" aria-label="EnkaMax"/><path transform="scale(1 .999)" d="m1.75 8.16h-0.463l-0.587-0.81q-0.0652 0.00256-0.106 0.00256-0.0166 0-0.0358 0-0.0192-0.00128-0.0396-0.00256v0.503q0 0.164 0.0358 0.203 0.0486 0.0562 0.146 0.0562h0.0677v0.0473h-0.742v-0.0473h0.0652q0.11 0 0.157-0.0716 0.0268-0.0396 0.0268-0.188v-1.12q0-0.164-0.0358-0.203-0.0498-0.0562-0.148-0.0562h-0.0652v-0.0473h0.631q0.276 0 0.406 0.0409 0.132 0.0396 0.222 0.148 0.092 0.107 0.092 0.257 0 0.16-0.105 0.277-0.104 0.118-0.322 0.166l0.358 0.497q0.123 0.171 0.211 0.227 0.0882 0.0562 0.23 0.0716zm-1.23-0.891q0.0243 0 0.0422 0.00128 0.0179 0 0.0294 0 0.248 0 0.373-0.107 0.127-0.107 0.127-0.273 0-0.162-0.102-0.263-0.101-0.102-0.268-0.102-0.0741 0-0.201 0.0243zm1.75-0.748v0.685h0.381q0.148 0 0.198-0.0447 0.0664-0.0588 0.0741-0.207h0.0473v0.603h-0.0473q-0.0179-0.127-0.0358-0.162-0.023-0.0447-0.0754-0.0703-0.0524-0.0256-0.161-0.0256h-0.381v0.571q0 0.115 0.0102 0.141 0.0102 0.0243 0.0358 0.0396 0.0256 0.0141 0.0971 0.0141h0.294q0.147 0 0.213-0.0204t0.128-0.0805q0.0792-0.0792 0.162-0.239h0.0511l-0.15 0.434h-1.34v-0.0473h0.0613q0.0613 0 0.116-0.0294 0.0409-0.0204 0.0549-0.0613 0.0153-0.0409 0.0153-0.167v-1.13q0-0.165-0.0332-0.203-0.046-0.0511-0.153-0.0511h-0.0613v-0.0473h1.34l0.0192 0.38h-0.0498q-0.0268-0.137-0.0601-0.188-0.0319-0.0511-0.0958-0.0779-0.0511-0.0192-0.18-0.0192zm2.63-0.134 0.0396 0.589h-0.0396q-0.0792-0.265-0.226-0.381-0.147-0.116-0.353-0.116-0.173 0-0.312 0.0882-0.139 0.0869-0.22 0.279-0.0792 0.192-0.0792 0.477 0 0.235 0.0754 0.408t0.226 0.265q0.152 0.092 0.346 0.092 0.169 0 0.298-0.0716 0.129-0.0728 0.284-0.288l0.0396 0.0256q-0.13 0.231-0.304 0.339-0.174 0.107-0.413 0.107-0.431 0-0.667-0.319-0.176-0.238-0.176-0.56 0-0.259 0.116-0.477 0.116-0.217 0.319-0.336 0.204-0.12 0.446-0.12 0.188 0 0.371 0.092 0.0537 0.0281 0.0767 0.0281 0.0345 0 0.0601-0.0243 0.0332-0.0345 0.0473-0.0958zm1.94 1.77h-0.463l-0.587-0.81q-0.0652 0.00256-0.106 0.00256-0.0166 0-0.0358 0-0.0192-0.00128-0.0396-0.00256v0.503q0 0.164 0.0358 0.203 0.0486 0.0562 0.146 0.0562h0.0677v0.0473h-0.742v-0.0473h0.0652q0.11 0 0.157-0.0716 0.0268-0.0396 0.0268-0.188v-1.12q0-0.164-0.0358-0.203-0.0498-0.0562-0.148-0.0562h-0.0652v-0.0473h0.631q0.276 0 0.406 0.0409 0.132 0.0396 0.222 0.148 0.092 0.107 0.092 0.257 0 0.16-0.105 0.277-0.104 0.118-0.322 0.166l0.358 0.497q0.123 0.171 0.211 0.227 0.0882 0.0562 0.23 0.0716zm-1.23-0.891q0.0243 0 0.0422 0.00128 0.0179 0 0.0294 0 0.248 0 0.373-0.107 0.127-0.107 0.127-0.273 0-0.162-0.102-0.263-0.101-0.102-0.268-0.102-0.0741 0-0.201 0.0243zm2.46-0.795v-0.0473h0.613v0.0473h-0.0652q-0.102 0-0.157 0.0856-0.0268 0.0396-0.0268 0.184v0.703q0 0.261-0.0524 0.405-0.0511 0.143-0.203 0.247-0.151 0.102-0.411 0.102-0.284 0-0.431-0.0984-0.147-0.0984-0.208-0.265-0.0409-0.114-0.0409-0.427v-0.677q0-0.16-0.0447-0.21-0.0434-0.0498-0.142-0.0498h-0.0652v-0.0473h0.749v0.0473h-0.0664q-0.107 0-0.153 0.0677-0.0319 0.046-0.0319 0.192v0.755q0 0.101 0.0179 0.231 0.0192 0.13 0.0677 0.203 0.0486 0.0728 0.139 0.12 0.092 0.0473 0.225 0.0473 0.17 0 0.304-0.0741t0.183-0.189q0.0498-0.116 0.0498-0.392v-0.702q0-0.162-0.0358-0.203-0.0498-0.0562-0.148-0.0562zm1.45 1.64v0.0473h-0.742v-0.0473h0.0613q0.107 0 0.156-0.0626 0.0307-0.0409 0.0307-0.197v-1.12q0-0.132-0.0166-0.174-0.0128-0.0319-0.0524-0.0549-0.0562-0.0307-0.118-0.0307h-0.0613v-0.0473h0.742v0.0473h-0.0626q-0.106 0-0.155 0.0626-0.0319 0.0409-0.0319 0.197v1.12q0 0.132 0.0166 0.174 0.0128 0.0319 0.0537 0.0549 0.0549 0.0307 0.116 0.0307zm1.58-1.69 0.0192 0.406h-0.0486q-0.0141-0.107-0.0383-0.153-0.0396-0.0741-0.106-0.109-0.0652-0.0358-0.173-0.0358h-0.244v1.32q0 0.16 0.0345 0.199 0.0486 0.0537 0.15 0.0537h0.0601v0.0473h-0.735v-0.0473h0.0613q0.11 0 0.156-0.0664 0.0281-0.0409 0.0281-0.187v-1.32h-0.208q-0.121 0-0.173 0.0179-0.0664 0.0243-0.114 0.0933-0.0473 0.069-0.0562 0.187h-0.0486l0.0204-0.406zm0.892 1.69v0.0473h-0.742v-0.0473h0.0613q0.107 0 0.156-0.0626 0.0307-0.0409 0.0307-0.197v-1.12q0-0.132-0.0166-0.174-0.0128-0.0319-0.0524-0.0549-0.0562-0.0307-0.118-0.0307h-0.0613v-0.0473h0.742v0.0473h-0.0626q-0.106 0-0.155 0.0626-0.032 0.0409-0.032 0.197v1.12q0 0.132 0.0166 0.174 0.0128 0.0319 0.0537 0.0549 0.055 0.0307 0.116 0.0307zm0.0294-1.69h0.47l1.06 1.3v-0.999q0-0.16-0.0358-0.199-0.0473-0.0537-0.15-0.0537h-0.0601v-0.0473h0.603v0.0473h-0.0613q-0.11 0-0.156 0.0664-0.0281 0.0409-0.0281 0.187v1.46h-0.046l-1.14-1.4v1.07q0 0.16 0.0345 0.199 0.0486 0.0537 0.15 0.0537h0.0613v0.0473h-0.603v-0.0473h0.0601q0.111 0 0.157-0.0664 0.0281-0.0409 0.0281-0.187v-1.21q-0.0754-0.0882-0.115-0.116-0.0383-0.0281-0.114-0.0524-0.0371-0.0115-0.112-0.0115zm3.53-0.0396 0.0447 0.547h-0.0447q-0.0677-0.204-0.175-0.308-0.155-0.15-0.397-0.15-0.331 0-0.503 0.262-0.144 0.221-0.144 0.526 0 0.248 0.0958 0.452 0.0958 0.204 0.25 0.3 0.156 0.0946 0.319 0.0946 0.0958 0 0.185-0.0243 0.0894-0.0243 0.173-0.0716v-0.501q0-0.13-0.0204-0.17-0.0192-0.0409-0.0613-0.0613-0.0409-0.0217-0.146-0.0217v-0.0486h0.671v0.0486h-0.032q-0.0997 0-0.137 0.0664-0.0256 0.0473-0.0256 0.187v0.53q-0.147 0.0792-0.29 0.116-0.143 0.0371-0.318 0.0371-0.502 0-0.763-0.322-0.196-0.242-0.196-0.557 0-0.229 0.11-0.438 0.13-0.249 0.358-0.383 0.19-0.111 0.45-0.111 0.0946 0 0.171 0.0153 0.078 0.0153 0.22 0.0677 0.0716 0.0268 0.0958 0.0268t0.0409-0.0217q0.0179-0.023 0.0217-0.0882zm2.27 0.657h0.537v0.0473q-0.111 0.00894-0.165 0.0498-0.0524 0.0396-0.165 0.243-0.112 0.203-0.253 0.38 0.114 0.133 0.203 0.187 0.0894 0.0524 0.18 0.0524 0.0882 0 0.15-0.0473 0.0613-0.0486 0.0869-0.142l0.0473 0.0345q-0.0473 0.18-0.152 0.266-0.105 0.0856-0.244 0.0856-0.105 0-0.213-0.0562-0.107-0.0575-0.235-0.193-0.158 0.141-0.286 0.196-0.127 0.0537-0.271 0.0537-0.211 0-0.335-0.112t-0.124-0.268q0-0.155 0.111-0.308 0.111-0.155 0.418-0.319-0.0601-0.133-0.0818-0.217-0.0217-0.0856-0.0217-0.164 0-0.219 0.161-0.334 0.125-0.0894 0.285-0.0894 0.152 0 0.248 0.0907 0.0958 0.0894 0.0958 0.221 0 0.135-0.0933 0.238-0.092 0.102-0.327 0.224 0.162 0.289 0.339 0.529 0.225-0.268 0.225-0.452 0-0.0588-0.0383-0.105-0.0281-0.0345-0.0805-0.0409zm-0.488 0.0332q0.158-0.0754 0.236-0.171 0.0792-0.0958 0.0792-0.213 0-0.092-0.0575-0.152-0.0562-0.0601-0.141-0.0601-0.111 0-0.169 0.0779-0.0562 0.0767-0.0562 0.151 0 0.0626 0.0217 0.141 0.0217 0.0767 0.0856 0.227zm0.198 0.799q-0.169-0.23-0.234-0.336-0.0652-0.106-0.143-0.263-0.153 0.0882-0.231 0.194-0.0767 0.106-0.0767 0.23 0 0.137 0.0882 0.24t0.238 0.104q0.0805 0 0.155-0.0319 0.0754-0.0319 0.204-0.137zm3.22-1.49 0.0396 0.589h-0.0396q-0.0792-0.265-0.226-0.381-0.147-0.116-0.353-0.116-0.173 0-0.312 0.0882-0.139 0.0869-0.22 0.279-0.0792 0.192-0.0792 0.477 0 0.235 0.0754 0.408t0.226 0.265q0.152 0.092 0.346 0.092 0.169 0 0.298-0.0716 0.129-0.0728 0.284-0.288l0.0396 0.0256q-0.13 0.231-0.304 0.339t-0.413 0.107q-0.431 0-0.667-0.319-0.176-0.238-0.176-0.56 0-0.259 0.116-0.477 0.116-0.217 0.319-0.336 0.204-0.12 0.446-0.12 0.188 0 0.371 0.092 0.0537 0.0281 0.0767 0.0281 0.0345 0 0.0601-0.0243 0.0332-0.0345 0.0473-0.0958zm1.13 0q0.337 0 0.584 0.257 0.248 0.256 0.248 0.639 0 0.395-0.249 0.656t-0.603 0.261q-0.358 0-0.602-0.254-0.243-0.254-0.243-0.658 0-0.413 0.281-0.673 0.244-0.226 0.584-0.226zm-0.0243 0.0933q-0.233 0-0.373 0.173-0.175 0.215-0.175 0.629 0 0.424 0.181 0.653 0.139 0.174 0.368 0.174 0.244 0 0.403-0.19 0.16-0.19 0.16-0.601 0-0.445-0.175-0.663-0.141-0.174-0.388-0.174zm0.923-0.0537h0.47l1.06 1.3v-0.999q0-0.16-0.0358-0.199-0.0473-0.0537-0.15-0.0537h-0.0601v-0.0473h0.603v0.0473h-0.0613q-0.11 0-0.156 0.0664-0.0281 0.0409-0.0281 0.187v1.46h-0.046l-1.14-1.4v1.07q0 0.16 0.0345 0.199 0.0486 0.0537 0.15 0.0537h0.0613v0.0473h-0.603v-0.0473h0.0601q0.111 0 0.157-0.0664 0.0281-0.0409 0.0281-0.187v-1.21q-0.0754-0.0882-0.115-0.116-0.0383-0.0281-0.114-0.0524-0.0371-0.0115-0.112-0.0115zm3.12-0.0396v0.599h-0.0473q-0.023-0.173-0.0831-0.275-0.0588-0.102-0.169-0.162t-0.227-0.0601q-0.133 0-0.22 0.0818-0.0869 0.0805-0.0869 0.184 0 0.0792 0.055 0.144 0.0792 0.0958 0.377 0.256 0.243 0.13 0.331 0.201 0.0894 0.069 0.137 0.164 0.0486 0.0946 0.0486 0.198 0 0.197-0.153 0.34-0.152 0.142-0.392 0.142-0.0754 0-0.142-0.0115-0.0396-0.00639-0.165-0.046-0.124-0.0409-0.157-0.0409-0.032 0-0.0511 0.0192-0.0179 0.0192-0.0268 0.0792h-0.0473v-0.594h0.0473q0.0332 0.187 0.0894 0.28 0.0562 0.092 0.171 0.153 0.116 0.0613 0.254 0.0613 0.16 0 0.252-0.0843 0.0933-0.0843 0.0933-0.199 0-0.0639-0.0358-0.129-0.0345-0.0652-0.109-0.121-0.0498-0.0383-0.272-0.162-0.222-0.125-0.317-0.199-0.0933-0.0741-0.142-0.164-0.0486-0.0894-0.0486-0.197 0-0.187 0.143-0.321 0.143-0.135 0.364-0.135 0.138 0 0.293 0.0677 0.0716 0.0319 0.101 0.0319 0.0332 0 0.0537-0.0192 0.0217-0.0204 0.0345-0.0805zm1.5 0.0869v-0.0473h0.613v0.0473h-0.0652q-0.102 0-0.157 0.0856-0.0268 0.0396-0.0268 0.184v0.703q0 0.261-0.0524 0.405-0.0511 0.143-0.203 0.247-0.151 0.102-0.411 0.102-0.284 0-0.431-0.0984-0.147-0.0984-0.208-0.265-0.0409-0.114-0.0409-0.427v-0.677q0-0.16-0.0447-0.21-0.0434-0.0498-0.142-0.0498h-0.0652v-0.0473h0.749v0.0473h-0.0664q-0.107 0-0.153 0.0677-0.032 0.046-0.032 0.192v0.755q0 0.101 0.0179 0.231 0.0192 0.13 0.0677 0.203 0.0486 0.0728 0.139 0.12 0.092 0.0473 0.225 0.0473 0.17 0 0.304-0.0741t0.183-0.189q0.0498-0.116 0.0498-0.392v-0.702q0-0.162-0.0358-0.203-0.0498-0.0562-0.148-0.0562zm2.14 1.21 0.0422 0.00894-0.148 0.47h-1.34v-0.0473h0.0652q0.11 0 0.157-0.0716 0.0268-0.0409 0.0268-0.189v-1.12q0-0.162-0.0358-0.203-0.0498-0.0562-0.148-0.0562h-0.0652v-0.0473h0.785v0.0473q-0.138-0.00128-0.194 0.0256-0.055 0.0268-0.0754 0.0677-0.0204 0.0409-0.0204 0.196v1.09q0 0.106 0.0204 0.146 0.0153 0.0268 0.0473 0.0396t0.199 0.0128h0.127q0.199 0 0.28-0.0294 0.0805-0.0294 0.147-0.104 0.0664-0.0754 0.133-0.236zm1.37-1.25 0.0192 0.406h-0.0486q-0.0141-0.107-0.0383-0.153-0.0396-0.0741-0.106-0.109-0.0652-0.0358-0.173-0.0358h-0.244v1.32q0 0.16 0.0345 0.199 0.0486 0.0537 0.15 0.0537h0.0601v0.0473h-0.735v-0.0473h0.0613q0.11 0 0.156-0.0664 0.0281-0.0409 0.0281-0.187v-1.32h-0.208q-0.121 0-0.173 0.0179-0.0664 0.0243-0.114 0.0933-0.0473 0.069-0.0562 0.187h-0.0486l0.0204-0.406zm0.892 1.69v0.0473h-0.742v-0.0473h0.0613q0.107 0 0.156-0.0626 0.0307-0.0409 0.0307-0.197v-1.12q0-0.132-0.0166-0.174-0.0128-0.0319-0.0524-0.0549-0.0562-0.0307-0.118-0.0307h-0.0613v-0.0473h0.742v0.0473h-0.0626q-0.106 0-0.155 0.0626-0.032 0.0409-0.032 0.197v1.12q0 0.132 0.0166 0.174 0.0128 0.0319 0.0537 0.0549 0.055 0.0307 0.116 0.0307zm0.0294-1.69h0.47l1.06 1.3v-0.999q0-0.16-0.0358-0.199-0.0473-0.0537-0.15-0.0537h-0.0601v-0.0473h0.603v0.0473h-0.0613q-0.11 0-0.156 0.0664-0.0281 0.0409-0.0281 0.187v1.46h-0.046l-1.14-1.4v1.07q0 0.16 0.0345 0.199 0.0486 0.0537 0.15 0.0537h0.0613v0.0473h-0.603v-0.0473h0.0601q0.111 0 0.157-0.0664 0.0281-0.0409 0.0281-0.187v-1.21q-0.0754-0.0882-0.115-0.116-0.0383-0.0281-0.114-0.0524-0.0371-0.0115-0.112-0.0115zm3.53-0.0396 0.0447 0.547h-0.0447q-0.0677-0.204-0.175-0.308-0.155-0.15-0.397-0.15-0.331 0-0.503 0.262-0.144 0.221-0.144 0.526 0 0.248 0.0958 0.452 0.0958 0.204 0.25 0.3 0.156 0.0946 0.319 0.0946 0.0958 0 0.185-0.0243 0.0894-0.0243 0.173-0.0716v-0.501q0-0.13-0.0204-0.17-0.0192-0.0409-0.0613-0.0613-0.0409-0.0217-0.146-0.0217v-0.0486h0.671v0.0486h-0.032q-0.0997 0-0.137 0.0664-0.0256 0.0473-0.0256 0.187v0.53q-0.147 0.0792-0.29 0.116t-0.318 0.0371q-0.502 0-0.763-0.322-0.196-0.242-0.196-0.557 0-0.229 0.11-0.438 0.13-0.249 0.358-0.383 0.19-0.111 0.45-0.111 0.0946 0 0.171 0.0153 0.078 0.0153 0.22 0.0677 0.0716 0.0268 0.0958 0.0268t0.0409-0.0217q0.0179-0.023 0.0217-0.0882z" fill="var(--secondary)" fill-opacity=".992" stroke-width=".106" aria-label="RECRUITING &amp; CONSULTING"/></svg>
